<?xml version="1.0" encoding="UTF-8"?>
<svg width="144px" height="14px" viewBox="0 0 144 14" version="1.1" xmlns="http://www.w3.org/2000/svg" xmlns:xlink="http://www.w3.org/1999/xlink">
    <title>CDI Dots</title>
    <defs>
        <path d="M13,7 C13,10.5898509 10.0898509,13.5 6.5,13.5 C2.91014913,13.5 0,10.5898509 0,7 C0,3.41014913 2.91014913,0.5 6.5,0.5 C10.0898509,0.5 13,3.41014913 13,7 Z M45,7 C45,10.5898509 42.0898509,13.5 38.5,13.5 C34.9101491,13.5 32,10.5898509 32,7 C32,3.41014913 34.9101491,0.5 38.5,0.5 C42.0898509,0.5 45,3.41014913 45,7 Z M112,7 C112,10.5898509 109.089851,13.5 105.5,13.5 C101.910149,13.5 99,10.5898509 99,7 C99,3.41014913 101.910149,0.5 105.5,0.5 C109.089851,0.5 112,3.41014913 112,7 Z M144,7 C144,10.5898509 141.089851,13.5 137.5,13.5 C133.910149,13.5 131,10.5898509 131,7 C131,3.41014913 133.910149,0.5 137.5,0.5 C141.089851,0.5 144,3.41014913 144,7 Z" id="path-1"></path>
    </defs>
    <g id="CDI-Dots" stroke="none" fill="none" xlink:href="#path-1" stroke-width="2.5">
        <circle id="Oval" stroke="#FFFFFF" cx="6.5" cy="7" r="5.25"></circle>
        <circle id="Oval" stroke="#FFFFFF" cx="38.5" cy="7" r="5.25"></circle>
        <circle id="Oval" stroke="#FFFFFF" cx="105.5" cy="7" r="5.25"></circle>
        <circle id="Oval" stroke="#FFFFFF" cx="137.5" cy="7" r="5.25"></circle>
    </g>
</svg>