<?xml version="1.0" encoding="UTF-8"?>
<svg width="201px" height="201px" viewBox="0 0 201 201" version="1.1" xmlns="http://www.w3.org/2000/svg" xmlns:xlink="http://www.w3.org/1999/xlink">
    <title>HSI Plane</title>
    <defs>
        <path d="M201,98.836799 L201,102.407934 L102.407934,201 L99.5164479,201 L9.02886939e-08,101.483552 L9.02886939e-08,101.175394 L101.175394,9.02886939e-08 L102.163201,9.02886939e-08 Z" id="path-1"></path>
    </defs>
    <g id="HSI-Plane" stroke="none" fill="none" xlink:href="#path-1" fill-rule="evenodd" stroke-width="1">
        <g id="airplane.up.right" transform="translate(101.3157, 100.9759) rotate(-45) translate(-101.3157, -100.9759)translate(29.3157, 29.4759)">
            <g id="Group" transform="translate(-0, -0)">
                <rect id="Rectangle" fill="#000000" opacity="0" x="9.40220874e-13" y="0" width="144" height="143"></rect>
                <path d="M141.17947,2.80081324 C135.209859,-3.06997495 122.697878,0.691893335 112.940446,10.3245315 L92.048076,31.1287676 C89.2356749,33.8646402 87.685881,34.491673 84.0698872,34.3206953 L12.4389383,31.1857602 C10.1430583,31.1287676 8.13418054,31.6988079 6.6992613,33.1807293 L0.787410629,39.1655221 C-0.59011161,40.4194732 -0.130937914,42.4143279 1.93533911,43.0983533 L58.5858728,64.3586445 L35.0531604,93.5415905 L8.88033578,85.9037841 C6.9288493,85.3908509 5.32174482,85.9037841 3.71464035,87.5567977 L1.41877187,89.7796227 C0.0986477811,91.1476734 0.0412519334,92.6865874 1.41877187,94.0545237 L49.2875703,141.591025 C50.6650752,142.958618 52.2721451,142.901397 53.5923741,141.591025 L55.8881389,139.311322 C57.495324,137.714843 58.0118451,136.119509 57.495324,134.238067 L49.8040914,108.247049 L79.2485623,84.8208107 L100.600177,141.078321 C101.288872,143.130282 103.297796,143.585765 104.61791,142.218172 L110.587175,136.34725 C112.079462,134.922436 112.710881,132.983773 112.65349,130.646848 L109.439235,59.5138176 C109.267061,55.922942 109.898364,54.3839135 112.710881,51.5910483 L133.603366,30.8438048 C143.303407,21.1541511 147.091459,8.72860202 141.17947,2.80081324 Z" id="Path" fill="#FFFFFF"></path>
            </g>
        </g>
    </g>
</svg>