<?xml version="1.0" encoding="UTF-8"?>
<svg width="385px" height="120px" viewBox="0 0 385 120" version="1.1" xmlns="http://www.w3.org/2000/svg" xmlns:xlink="http://www.w3.org/1999/xlink">
    <title>Roll Scale</title>
    <defs>
        <path d="M361.099833,120 L25.9001663,120 C58.8316803,61.4659603 121.556956,22 193.5,22 C265.443044,22 328.16832,61.4659603 361.099833,120 Z M193,22 L182,0 L204,0 Z" id="path-1"></path>
    </defs>
    <g id="Roll-Scale" stroke="none" fill="none" xlink:href="#path-1">
        <circle id="Oval" stroke="#FFFFFF" stroke-width="2" cx="193.5" cy="214.5" r="191.5"></circle>
        <line x1="81.5" y1="22.5" x2="97" y2="49" id="Line" stroke="#FFFFFF" stroke-width="2" stroke-linecap="square"></line>
        <line x1="2" y1="105" x2="26.5" y2="119.5" id="Line" stroke="#FFFFFF" stroke-width="2" stroke-linecap="square"></line>
        <line x1="48" y1="70" x2="57" y2="79" id="Line" stroke="#FFFFFF" stroke-width="2" stroke-linecap="square"></line>
        <line x1="123" y1="22" x2="127" y2="34" id="Line" stroke="#FFFFFF" stroke-width="2" stroke-linecap="square"></line>
        <line x1="157" y1="12" x2="159" y2="25" id="Line" stroke="#FFFFFF" stroke-width="2" stroke-linecap="square"></line>
        <g id="Group" stroke-width="1" fill-rule="evenodd" transform="translate(306, 65) scale(-1, 1) translate(-306, -65)translate(227, 11)" stroke="#FFFFFF" stroke-linecap="square">
            <line x1="80" y1="10.5" x2="95.5" y2="37" id="Line" stroke-width="2"></line>
            <line x1="0.5" y1="93" x2="25" y2="107.5" id="Line" stroke-width="2"></line>
            <line x1="46.5" y1="58" x2="55.5" y2="67" id="Line" stroke-width="2"></line>
            <line x1="121.5" y1="10" x2="125.5" y2="22" id="Line" stroke-width="2"></line>
            <line x1="155.5" y1="0" x2="157.5" y2="13" id="Line" stroke-width="2"></line>
        </g>
        <polygon id="Triangle" fill="#FFFFFF" fill-rule="evenodd" transform="translate(193, 11) scale(1, -1) translate(-193, -11)" points="193 0 204 22 182 22"></polygon>
    </g>
</svg>